<mxfile host="65bd71144e" scale="5" border="0">
    <diagram id="yjiO_JQ9d7L8-kVdmlm_" name="Page-1">
        <mxGraphModel dx="1244" dy="849" grid="1" gridSize="10" guides="1" tooltips="1" connect="1" arrows="1" fold="1" page="1" pageScale="1" pageWidth="827" pageHeight="1169" math="0" shadow="0">
            <root>
                <mxCell id="0"/>
                <mxCell id="1" parent="0"/>
                <mxCell id="2" value="Explainable AI methods" style="rounded=0;fontSize=10;html=1;gradientColor=none;fillColor=#B3B3B3;" parent="1" vertex="1">
                    <mxGeometry x="50" y="548" width="110" height="32" as="geometry"/>
                </mxCell>
                <mxCell id="3" value="" style="rounded=0;orthogonalLoop=1;jettySize=auto;exitX=1;exitY=0.5;exitDx=0;exitDy=0;entryX=0;entryY=0.5;entryDx=0;entryDy=0;endArrow=none;endFill=0;fontSize=10;html=1;" parent="1" source="5" target="10" edge="1">
                    <mxGeometry relative="1" as="geometry"/>
                </mxCell>
                <mxCell id="4" value="" style="rounded=0;orthogonalLoop=1;jettySize=auto;exitX=1;exitY=0.5;exitDx=0;exitDy=0;entryX=0;entryY=0.5;entryDx=0;entryDy=0;endArrow=none;endFill=0;fontSize=10;html=1;strokeWidth=2;" parent="1" source="5" target="15" edge="1">
                    <mxGeometry relative="1" as="geometry"/>
                </mxCell>
                <mxCell id="5" value="Post-Hoc Explanation" style="rounded=0;fontSize=10;html=1;gradientColor=none;fillColor=#B3B3B3;" parent="1" vertex="1">
                    <mxGeometry x="200" y="430" width="110" height="30" as="geometry"/>
                </mxCell>
                <mxCell id="9" value="" style="rounded=0;orthogonalLoop=1;jettySize=auto;exitX=1;exitY=0.5;exitDx=0;exitDy=0;entryX=0;entryY=0.5;entryDx=0;entryDy=0;endArrow=none;endFill=0;fontSize=10;html=1;" parent="1" source="10" target="37" edge="1">
                    <mxGeometry relative="1" as="geometry"/>
                </mxCell>
                <mxCell id="10" value="Model-Specific &lt;br&gt;Methods" style="rounded=0;fontSize=10;html=1;gradientColor=none;fillColor=#B3B3B3;" parent="1" vertex="1">
                    <mxGeometry x="350" y="340" width="110" height="30" as="geometry"/>
                </mxCell>
                <mxCell id="11" value="Build Interpretable &lt;br&gt;Model For The Case" style="rounded=0;fontSize=10;html=1;gradientColor=none;fillColor=#B3B3B3;" parent="1" vertex="1">
                    <mxGeometry x="200" y="660" width="110" height="30" as="geometry"/>
                </mxCell>
                <mxCell id="12" value="" style="rounded=0;orthogonalLoop=1;jettySize=auto;exitX=1;exitY=0.5;exitDx=0;exitDy=0;entryX=0;entryY=0.5;entryDx=0;entryDy=0;endArrow=none;endFill=0;fontSize=10;html=1;" parent="1" source="15" target="18" edge="1">
                    <mxGeometry relative="1" as="geometry"/>
                </mxCell>
                <mxCell id="13" value="" style="rounded=0;orthogonalLoop=1;jettySize=auto;exitX=1;exitY=0.5;exitDx=0;exitDy=0;entryX=0;entryY=0.5;entryDx=0;entryDy=0;endArrow=none;endFill=0;fontSize=10;html=1;" parent="1" source="15" target="16" edge="1">
                    <mxGeometry relative="1" as="geometry"/>
                </mxCell>
                <mxCell id="14" value="" style="rounded=0;orthogonalLoop=1;jettySize=auto;exitX=1;exitY=0.5;exitDx=0;exitDy=0;entryX=0;entryY=0.5;entryDx=0;entryDy=0;endArrow=none;endFill=0;fontSize=10;html=1;strokeWidth=2;" parent="1" source="15" target="17" edge="1">
                    <mxGeometry relative="1" as="geometry"/>
                </mxCell>
                <mxCell id="15" value="Model-Agnostic &lt;br&gt;Methods" style="rounded=0;fontSize=10;html=1;gradientColor=none;fillColor=#B3B3B3;" parent="1" vertex="1">
                    <mxGeometry x="350" y="548" width="110" height="30" as="geometry"/>
                </mxCell>
                <mxCell id="16" value="Explain by &lt;br&gt;Simplification" style="rounded=0;fontSize=10;html=1;gradientColor=none;fillColor=#B3B3B3;" parent="1" vertex="1">
                    <mxGeometry x="500" y="685" width="110" height="30" as="geometry"/>
                </mxCell>
                <mxCell id="17" value="Explain by Feature &lt;br&gt;Importance&amp;nbsp;" style="rounded=0;fontSize=10;html=1;gradientColor=none;fillColor=#B3B3B3;" parent="1" vertex="1">
                    <mxGeometry x="500" y="430" width="110" height="30" as="geometry"/>
                </mxCell>
                <mxCell id="18" value="Explain by &lt;br&gt;Visualization&amp;nbsp;" style="rounded=0;fontSize=10;html=1;gradientColor=none;fillColor=#B3B3B3;" parent="1" vertex="1">
                    <mxGeometry x="500" y="548" width="110" height="30" as="geometry"/>
                </mxCell>
                <mxCell id="19" value="" style="rounded=0;orthogonalLoop=1;jettySize=auto;exitX=1;exitY=0.5;exitDx=0;exitDy=0;entryX=0;entryY=0.5;entryDx=0;entryDy=0;endArrow=none;endFill=0;fontSize=10;html=1;strokeWidth=2;" parent="1" source="21" target="41" edge="1">
                    <mxGeometry relative="1" as="geometry"/>
                </mxCell>
                <mxCell id="20" value="" style="rounded=0;orthogonalLoop=1;jettySize=auto;exitX=1;exitY=0.5;exitDx=0;exitDy=0;entryX=0;entryY=0.5;entryDx=0;entryDy=0;endArrow=none;endFill=0;fontSize=10;html=1;strokeWidth=2;" parent="1" source="21" target="43" edge="1">
                    <mxGeometry relative="1" as="geometry"/>
                </mxCell>
                <mxCell id="21" value="Feature Masking" style="rounded=0;fontSize=10;html=1;gradientColor=none;fillColor=#B3B3B3;" parent="1" vertex="1">
                    <mxGeometry x="650" y="220" width="110" height="30" as="geometry"/>
                </mxCell>
                <mxCell id="22" value="" style="rounded=0;orthogonalLoop=1;jettySize=auto;exitX=1;exitY=0.5;exitDx=0;exitDy=0;entryX=0;entryY=0.5;entryDx=0;entryDy=0;endArrow=none;endFill=0;fontSize=10;html=1;" parent="1" source="26" target="68" edge="1">
                    <mxGeometry relative="1" as="geometry"/>
                </mxCell>
                <mxCell id="23" value="" style="rounded=0;orthogonalLoop=1;jettySize=auto;exitX=1;exitY=0.5;exitDx=0;exitDy=0;entryX=0;entryY=0.5;entryDx=0;entryDy=0;endArrow=none;endFill=0;fontSize=10;html=1;" parent="1" source="26" target="69" edge="1">
                    <mxGeometry relative="1" as="geometry"/>
                </mxCell>
                <mxCell id="24" value="" style="rounded=0;orthogonalLoop=1;jettySize=auto;exitX=1;exitY=0.5;exitDx=0;exitDy=0;entryX=0;entryY=0.5;entryDx=0;entryDy=0;endArrow=none;endFill=0;fontSize=10;html=1;" parent="1" source="26" target="67" edge="1">
                    <mxGeometry relative="1" as="geometry"/>
                </mxCell>
                <mxCell id="25" value="" style="rounded=0;orthogonalLoop=1;jettySize=auto;exitX=1;exitY=0.5;exitDx=0;exitDy=0;entryX=0;entryY=0.5;entryDx=0;entryDy=0;endArrow=none;endFill=0;fontSize=10;html=1;" parent="1" source="26" target="66" edge="1">
                    <mxGeometry relative="1" as="geometry"/>
                </mxCell>
                <mxCell id="26" value="Feature Mutation" style="rounded=0;fontSize=10;html=1;gradientColor=none;fillColor=#B3B3B3;" parent="1" vertex="1">
                    <mxGeometry x="650" y="430" width="110" height="30" as="geometry"/>
                </mxCell>
                <mxCell id="27" value="Accumulated &lt;br&gt;Local Effects (ALE)" style="rounded=1;fontSize=10;html=1;" parent="1" vertex="1">
                    <mxGeometry x="650" y="570" width="110" height="30" as="geometry"/>
                </mxCell>
                <mxCell id="28" value="Rule-based Learner" style="rounded=0;fontSize=10;html=1;gradientColor=none;fillColor=#B3B3B3;" parent="1" vertex="1">
                    <mxGeometry x="650" y="665" width="110" height="30" as="geometry"/>
                </mxCell>
                <mxCell id="29" value="Partial Dependence &lt;br&gt;Plot (PDP)" style="rounded=1;fontSize=10;html=1;" parent="1" vertex="1">
                    <mxGeometry x="650" y="480" width="110" height="30" as="geometry"/>
                </mxCell>
                <mxCell id="30" value="Use Linear Regression" style="rounded=1;fontSize=10;html=1;" parent="1" vertex="1">
                    <mxGeometry x="345" y="600" width="120" height="30" as="geometry"/>
                </mxCell>
                <mxCell id="31" value="Use Decision Tree" style="rounded=1;fontSize=10;html=1;" parent="1" vertex="1">
                    <mxGeometry x="345" y="680" width="120" height="30" as="geometry"/>
                </mxCell>
                <mxCell id="32" value="Use Logistic Regression" style="rounded=1;fontSize=10;html=1;" parent="1" vertex="1">
                    <mxGeometry x="345" y="640" width="120" height="30" as="geometry"/>
                </mxCell>
                <mxCell id="33" value="Use K-Nearest Neighbors" style="rounded=1;fontSize=10;html=1;" parent="1" vertex="1">
                    <mxGeometry x="345" y="720" width="120" height="30" as="geometry"/>
                </mxCell>
                <mxCell id="37" value="Axiomatic Attribution" style="rounded=1;fontSize=10;html=1;" parent="1" vertex="1">
                    <mxGeometry x="500" y="380" width="110" height="30" as="geometry"/>
                </mxCell>
                <mxCell id="38" value="Individual Conditional &lt;br&gt;Expectation (ICE)" style="rounded=1;fontSize=10;html=1;" parent="1" vertex="1">
                    <mxGeometry x="650" y="525" width="110" height="30" as="geometry"/>
                </mxCell>
                <mxCell id="39" value="Decision Set" style="rounded=1;fontSize=10;html=1;" parent="1" vertex="1">
                    <mxGeometry x="800" y="625" width="110" height="30" as="geometry"/>
                </mxCell>
                <mxCell id="40" value="Bayesian Analysis" style="rounded=1;fontSize=10;html=1;" parent="1" vertex="1">
                    <mxGeometry x="800" y="665" width="110" height="30" as="geometry"/>
                </mxCell>
                <mxCell id="41" value="&lt;b&gt;Shapley Value&lt;/b&gt;" style="rounded=1;fontSize=10;html=1;strokeWidth=3;" parent="1" vertex="1">
                    <mxGeometry x="800" y="280" width="110" height="30" as="geometry"/>
                </mxCell>
                <mxCell id="42" value="Saliency Map" style="rounded=1;fontSize=10;html=1;" parent="1" vertex="1">
                    <mxGeometry x="650" y="610" width="110" height="30" as="geometry"/>
                </mxCell>
                <mxCell id="43" value="&lt;b&gt;SHAP&lt;/b&gt;" style="rounded=1;fontSize=10;html=1;strokeWidth=3;" parent="1" vertex="1">
                    <mxGeometry x="800" y="320" width="110" height="30" as="geometry"/>
                </mxCell>
                <mxCell id="44" value="Additional Interpretable &lt;br&gt;Model" style="rounded=0;fontSize=10;html=1;gradientColor=none;fillColor=#B3B3B3;" parent="1" vertex="1">
                    <mxGeometry x="650" y="705" width="110" height="30" as="geometry"/>
                </mxCell>
                <mxCell id="45" value="LIME" style="rounded=1;fontSize=10;html=1;" parent="1" vertex="1">
                    <mxGeometry x="800" y="705" width="110" height="30" as="geometry"/>
                </mxCell>
                <mxCell id="46" value="Anchors" style="rounded=1;fontSize=10;html=1;" parent="1" vertex="1">
                    <mxGeometry x="800" y="745" width="120" height="30" as="geometry"/>
                </mxCell>
                <mxCell id="47" value="" style="endArrow=none;fontFamily=Helvetica;fontSize=10;fontColor=default;entryX=0;entryY=0.5;entryDx=0;entryDy=0;exitX=1;exitY=0.5;exitDx=0;exitDy=0;rounded=0;html=1;strokeWidth=2;" parent="1" source="2" target="5" edge="1">
                    <mxGeometry width="50" height="50" relative="1" as="geometry">
                        <mxPoint x="130" y="460" as="sourcePoint"/>
                        <mxPoint x="180" y="410" as="targetPoint"/>
                    </mxGeometry>
                </mxCell>
                <mxCell id="48" value="" style="endArrow=none;fontFamily=Helvetica;fontSize=10;fontColor=default;exitX=1;exitY=0.5;exitDx=0;exitDy=0;entryX=0;entryY=0.5;entryDx=0;entryDy=0;rounded=0;html=1;" parent="1" source="2" target="11" edge="1">
                    <mxGeometry width="50" height="50" relative="1" as="geometry">
                        <mxPoint x="150" y="650" as="sourcePoint"/>
                        <mxPoint x="200" y="600" as="targetPoint"/>
                    </mxGeometry>
                </mxCell>
                <mxCell id="49" value="" style="endArrow=none;fontFamily=Helvetica;fontSize=10;fontColor=default;entryX=0;entryY=0.5;entryDx=0;entryDy=0;exitX=1;exitY=0.5;exitDx=0;exitDy=0;rounded=0;html=1;" parent="1" source="11" target="30" edge="1">
                    <mxGeometry width="50" height="50" relative="1" as="geometry">
                        <mxPoint x="270" y="660" as="sourcePoint"/>
                        <mxPoint x="320" y="610" as="targetPoint"/>
                    </mxGeometry>
                </mxCell>
                <mxCell id="50" value="" style="endArrow=none;fontFamily=Helvetica;fontSize=10;fontColor=default;entryX=0;entryY=0.5;entryDx=0;entryDy=0;exitX=1;exitY=0.5;exitDx=0;exitDy=0;rounded=0;html=1;" parent="1" source="11" target="32" edge="1">
                    <mxGeometry width="50" height="50" relative="1" as="geometry">
                        <mxPoint x="260" y="790" as="sourcePoint"/>
                        <mxPoint x="310" y="740" as="targetPoint"/>
                    </mxGeometry>
                </mxCell>
                <mxCell id="51" value="" style="endArrow=none;fontFamily=Helvetica;fontSize=10;fontColor=default;entryX=0;entryY=0.5;entryDx=0;entryDy=0;exitX=1;exitY=0.5;exitDx=0;exitDy=0;rounded=0;html=1;" parent="1" source="11" target="31" edge="1">
                    <mxGeometry width="50" height="50" relative="1" as="geometry">
                        <mxPoint x="270" y="790" as="sourcePoint"/>
                        <mxPoint x="320" y="740" as="targetPoint"/>
                    </mxGeometry>
                </mxCell>
                <mxCell id="52" value="" style="endArrow=none;fontFamily=Helvetica;fontSize=10;fontColor=default;entryX=0;entryY=0.5;entryDx=0;entryDy=0;exitX=1;exitY=0.5;exitDx=0;exitDy=0;rounded=0;html=1;" parent="1" source="11" target="33" edge="1">
                    <mxGeometry width="50" height="50" relative="1" as="geometry">
                        <mxPoint x="200" y="810" as="sourcePoint"/>
                        <mxPoint x="250" y="760" as="targetPoint"/>
                    </mxGeometry>
                </mxCell>
                <mxCell id="53" value="" style="endArrow=none;fontFamily=Helvetica;fontSize=10;fontColor=default;entryX=0;entryY=0.5;entryDx=0;entryDy=0;exitX=1;exitY=0.5;exitDx=0;exitDy=0;rounded=0;html=1;" parent="1" source="18" target="29" edge="1">
                    <mxGeometry width="50" height="50" relative="1" as="geometry">
                        <mxPoint x="600" y="665" as="sourcePoint"/>
                        <mxPoint x="650" y="615" as="targetPoint"/>
                    </mxGeometry>
                </mxCell>
                <mxCell id="54" value="" style="endArrow=none;fontFamily=Helvetica;fontSize=10;fontColor=default;entryX=0;entryY=0.5;entryDx=0;entryDy=0;exitX=1;exitY=0.5;exitDx=0;exitDy=0;rounded=0;html=1;" parent="1" source="18" target="38" edge="1">
                    <mxGeometry width="50" height="50" relative="1" as="geometry">
                        <mxPoint x="580" y="755" as="sourcePoint"/>
                        <mxPoint x="630" y="705" as="targetPoint"/>
                    </mxGeometry>
                </mxCell>
                <mxCell id="55" value="" style="endArrow=none;fontFamily=Helvetica;fontSize=10;fontColor=default;entryX=0;entryY=0.5;entryDx=0;entryDy=0;exitX=1;exitY=0.5;exitDx=0;exitDy=0;rounded=0;html=1;" parent="1" source="18" target="27" edge="1">
                    <mxGeometry width="50" height="50" relative="1" as="geometry">
                        <mxPoint x="540" y="745" as="sourcePoint"/>
                        <mxPoint x="590" y="695" as="targetPoint"/>
                    </mxGeometry>
                </mxCell>
                <mxCell id="56" value="" style="endArrow=none;fontFamily=Helvetica;fontSize=10;fontColor=default;entryX=0;entryY=0.5;entryDx=0;entryDy=0;exitX=1;exitY=0.5;exitDx=0;exitDy=0;rounded=0;html=1;" parent="1" source="18" target="42" edge="1">
                    <mxGeometry width="50" height="50" relative="1" as="geometry">
                        <mxPoint x="570" y="755" as="sourcePoint"/>
                        <mxPoint x="620" y="705" as="targetPoint"/>
                    </mxGeometry>
                </mxCell>
                <mxCell id="57" value="" style="endArrow=none;fontFamily=Helvetica;fontSize=10;fontColor=default;entryX=0;entryY=0.5;entryDx=0;entryDy=0;exitX=1;exitY=0.5;exitDx=0;exitDy=0;rounded=0;html=1;" parent="1" source="16" target="28" edge="1">
                    <mxGeometry width="50" height="50" relative="1" as="geometry">
                        <mxPoint x="570" y="795" as="sourcePoint"/>
                        <mxPoint x="620" y="745" as="targetPoint"/>
                    </mxGeometry>
                </mxCell>
                <mxCell id="58" value="" style="endArrow=none;fontFamily=Helvetica;fontSize=10;fontColor=default;entryX=0;entryY=0.5;entryDx=0;entryDy=0;exitX=1;exitY=0.5;exitDx=0;exitDy=0;rounded=0;html=1;" parent="1" source="28" target="39" edge="1">
                    <mxGeometry width="50" height="50" relative="1" as="geometry">
                        <mxPoint x="550" y="795" as="sourcePoint"/>
                        <mxPoint x="600" y="745" as="targetPoint"/>
                    </mxGeometry>
                </mxCell>
                <mxCell id="59" value="" style="endArrow=none;fontFamily=Helvetica;fontSize=10;fontColor=default;entryX=0;entryY=0.5;entryDx=0;entryDy=0;exitX=1;exitY=0.5;exitDx=0;exitDy=0;rounded=0;html=1;" parent="1" source="28" target="40" edge="1">
                    <mxGeometry width="50" height="50" relative="1" as="geometry">
                        <mxPoint x="570" y="795" as="sourcePoint"/>
                        <mxPoint x="620" y="745" as="targetPoint"/>
                    </mxGeometry>
                </mxCell>
                <mxCell id="60" value="" style="endArrow=none;fontFamily=Helvetica;fontSize=10;fontColor=default;entryX=0;entryY=0.5;entryDx=0;entryDy=0;exitX=1;exitY=0.5;exitDx=0;exitDy=0;rounded=0;html=1;" parent="1" source="16" target="44" edge="1">
                    <mxGeometry width="50" height="50" relative="1" as="geometry">
                        <mxPoint x="550" y="785" as="sourcePoint"/>
                        <mxPoint x="600" y="735" as="targetPoint"/>
                    </mxGeometry>
                </mxCell>
                <mxCell id="61" value="" style="endArrow=none;fontFamily=Helvetica;fontSize=10;fontColor=default;entryX=0;entryY=0.5;entryDx=0;entryDy=0;exitX=1;exitY=0.5;exitDx=0;exitDy=0;rounded=0;html=1;" parent="1" source="44" target="45" edge="1">
                    <mxGeometry width="50" height="50" relative="1" as="geometry">
                        <mxPoint x="640" y="825" as="sourcePoint"/>
                        <mxPoint x="690" y="775" as="targetPoint"/>
                    </mxGeometry>
                </mxCell>
                <mxCell id="62" value="" style="endArrow=none;fontFamily=Helvetica;fontSize=10;fontColor=default;entryX=0;entryY=0.5;entryDx=0;entryDy=0;exitX=1;exitY=0.5;exitDx=0;exitDy=0;rounded=0;html=1;" parent="1" source="44" target="46" edge="1">
                    <mxGeometry width="50" height="50" relative="1" as="geometry">
                        <mxPoint x="580" y="805" as="sourcePoint"/>
                        <mxPoint x="630" y="755" as="targetPoint"/>
                    </mxGeometry>
                </mxCell>
                <mxCell id="63" value="" style="endArrow=none;fontFamily=Helvetica;fontSize=10;fontColor=default;entryX=0;entryY=0.5;entryDx=0;entryDy=0;exitX=1;exitY=0.5;exitDx=0;exitDy=0;rounded=0;html=1;strokeWidth=2;" parent="1" source="17" target="21" edge="1">
                    <mxGeometry width="50" height="50" relative="1" as="geometry">
                        <mxPoint x="560" y="440" as="sourcePoint"/>
                        <mxPoint x="610" y="390" as="targetPoint"/>
                    </mxGeometry>
                </mxCell>
                <mxCell id="64" value="" style="endArrow=none;fontFamily=Helvetica;fontSize=10;fontColor=default;entryX=0;entryY=0.5;entryDx=0;entryDy=0;exitX=1;exitY=0.5;exitDx=0;exitDy=0;rounded=0;html=1;" parent="1" source="17" target="26" edge="1">
                    <mxGeometry width="50" height="50" relative="1" as="geometry">
                        <mxPoint x="560" y="480" as="sourcePoint"/>
                        <mxPoint x="610" y="430" as="targetPoint"/>
                    </mxGeometry>
                </mxCell>
                <mxCell id="65" value="" style="group" parent="1" vertex="1" connectable="0">
                    <mxGeometry x="800" y="370" width="120" height="150" as="geometry"/>
                </mxCell>
                <mxCell id="66" value="Accumulated &lt;br&gt;Local Effects (ALE)" style="rounded=1;fontSize=10;html=1;" parent="65" vertex="1">
                    <mxGeometry y="120" width="110" height="30" as="geometry"/>
                </mxCell>
                <mxCell id="67" value="Partial Dependence &lt;br&gt;Plot (PDP)" style="rounded=1;fontSize=10;html=1;" parent="65" vertex="1">
                    <mxGeometry y="80" width="110" height="30" as="geometry"/>
                </mxCell>
                <mxCell id="68" value="Anchors" style="rounded=1;fontSize=10;html=1;" parent="65" vertex="1">
                    <mxGeometry width="120" height="30" as="geometry"/>
                </mxCell>
                <mxCell id="69" value="LIME" style="rounded=1;fontSize=10;html=1;" parent="65" vertex="1">
                    <mxGeometry y="40" width="110" height="30" as="geometry"/>
                </mxCell>
                <mxCell id="70" value="&lt;b&gt;Preddiff&lt;/b&gt;" style="rounded=1;fontSize=10;html=1;strokeWidth=3;" parent="1" vertex="1">
                    <mxGeometry x="800" y="200" width="110" height="30" as="geometry"/>
                </mxCell>
                <mxCell id="71" value="Mean-Centroid Preddiff" style="rounded=1;fontSize=10;html=1;strokeWidth=3;fontStyle=1" parent="1" vertex="1">
                    <mxGeometry x="800" y="240" width="110" height="30" as="geometry"/>
                </mxCell>
                <mxCell id="72" value="" style="endArrow=none;html=1;entryX=0;entryY=0.5;entryDx=0;entryDy=0;exitX=1;exitY=0.5;exitDx=0;exitDy=0;strokeWidth=2;" parent="1" source="21" target="70" edge="1">
                    <mxGeometry width="50" height="50" relative="1" as="geometry">
                        <mxPoint x="700" y="270" as="sourcePoint"/>
                        <mxPoint x="750" y="220" as="targetPoint"/>
                    </mxGeometry>
                </mxCell>
                <mxCell id="73" value="" style="endArrow=none;html=1;entryX=0;entryY=0.5;entryDx=0;entryDy=0;exitX=1;exitY=0.5;exitDx=0;exitDy=0;fontSize=12;strokeWidth=2;" parent="1" source="21" target="71" edge="1">
                    <mxGeometry width="50" height="50" relative="1" as="geometry">
                        <mxPoint x="680" y="390" as="sourcePoint"/>
                        <mxPoint x="730" y="340" as="targetPoint"/>
                    </mxGeometry>
                </mxCell>
                <mxCell id="75" value="Gradient Flows" style="rounded=1;fontSize=10;html=1;" parent="1" vertex="1">
                    <mxGeometry x="500" y="340" width="110" height="30" as="geometry"/>
                </mxCell>
                <mxCell id="76" value="Attention Values" style="rounded=1;fontSize=10;html=1;" parent="1" vertex="1">
                    <mxGeometry x="500" y="300" width="110" height="30" as="geometry"/>
                </mxCell>
                <mxCell id="78" value="" style="rounded=0;orthogonalLoop=1;jettySize=auto;entryX=0;entryY=0.5;entryDx=0;entryDy=0;endArrow=none;endFill=0;fontSize=10;html=1;exitX=1;exitY=0.5;exitDx=0;exitDy=0;" parent="1" target="75" edge="1" source="10">
                    <mxGeometry relative="1" as="geometry">
                        <mxPoint x="460" y="370" as="sourcePoint"/>
                        <mxPoint x="520" y="370" as="targetPoint"/>
                    </mxGeometry>
                </mxCell>
                <mxCell id="79" value="" style="rounded=0;orthogonalLoop=1;jettySize=auto;exitX=1;exitY=0.5;exitDx=0;exitDy=0;entryX=0;entryY=0.5;entryDx=0;entryDy=0;endArrow=none;endFill=0;fontSize=10;html=1;" parent="1" source="10" target="76" edge="1">
                    <mxGeometry relative="1" as="geometry">
                        <mxPoint x="460" y="370" as="sourcePoint"/>
                        <mxPoint x="530" y="380" as="targetPoint"/>
                    </mxGeometry>
                </mxCell>
                <mxCell id="80" value="Occlusion" style="rounded=1;fontSize=10;html=1;" parent="1" vertex="1">
                    <mxGeometry x="800" y="160" width="110" height="30" as="geometry"/>
                </mxCell>
                <mxCell id="81" value="CXPlain" style="rounded=1;fontSize=10;html=1;" parent="1" vertex="1">
                    <mxGeometry x="800" y="120" width="110" height="30" as="geometry"/>
                </mxCell>
                <mxCell id="82" value="" style="endArrow=none;html=1;entryX=0;entryY=0.5;entryDx=0;entryDy=0;exitX=1;exitY=0.5;exitDx=0;exitDy=0;" parent="1" source="21" target="80" edge="1">
                    <mxGeometry width="50" height="50" relative="1" as="geometry">
                        <mxPoint x="770" y="245" as="sourcePoint"/>
                        <mxPoint x="810" y="225" as="targetPoint"/>
                    </mxGeometry>
                </mxCell>
                <mxCell id="83" value="" style="endArrow=none;html=1;entryX=0;entryY=0.5;entryDx=0;entryDy=0;exitX=1;exitY=0.5;exitDx=0;exitDy=0;" parent="1" source="21" target="81" edge="1">
                    <mxGeometry width="50" height="50" relative="1" as="geometry">
                        <mxPoint x="760" y="230" as="sourcePoint"/>
                        <mxPoint x="810" y="185" as="targetPoint"/>
                    </mxGeometry>
                </mxCell>
                <mxCell id="87" value="CXPlain" style="rounded=1;fontSize=10;html=1;" vertex="1" parent="1">
                    <mxGeometry x="800" y="120" width="120" height="30" as="geometry"/>
                </mxCell>
                <mxCell id="88" value="Occlusion" style="rounded=1;fontSize=10;html=1;" vertex="1" parent="1">
                    <mxGeometry x="800" y="160" width="120" height="30" as="geometry"/>
                </mxCell>
                <mxCell id="89" value="&lt;b&gt;Preddiff&lt;/b&gt;" style="rounded=1;fontSize=10;html=1;strokeWidth=3;" vertex="1" parent="1">
                    <mxGeometry x="800" y="200" width="120" height="30" as="geometry"/>
                </mxCell>
                <mxCell id="90" value="Mean-Centroid Preddiff" style="rounded=1;fontSize=10;html=1;strokeWidth=3;fontStyle=1" vertex="1" parent="1">
                    <mxGeometry x="800" y="240" width="120" height="30" as="geometry"/>
                </mxCell>
                <mxCell id="91" value="&lt;b&gt;Shapley Value&lt;/b&gt;" style="rounded=1;fontSize=10;html=1;strokeWidth=3;" vertex="1" parent="1">
                    <mxGeometry x="800" y="280" width="120" height="30" as="geometry"/>
                </mxCell>
                <mxCell id="92" value="&lt;b&gt;SHAP&lt;/b&gt;" style="rounded=1;fontSize=10;html=1;strokeWidth=3;" vertex="1" parent="1">
                    <mxGeometry x="800" y="320" width="120" height="30" as="geometry"/>
                </mxCell>
                <mxCell id="93" value="LIME" style="rounded=1;fontSize=10;html=1;" vertex="1" parent="1">
                    <mxGeometry x="800" y="410" width="120" height="30" as="geometry"/>
                </mxCell>
                <mxCell id="94" value="Partial Dependence &lt;br&gt;Plot (PDP)" style="rounded=1;fontSize=10;html=1;" vertex="1" parent="1">
                    <mxGeometry x="800" y="450" width="120" height="30" as="geometry"/>
                </mxCell>
                <mxCell id="95" value="Accumulated &lt;br&gt;Local Effects (ALE)" style="rounded=1;fontSize=10;html=1;" vertex="1" parent="1">
                    <mxGeometry x="800" y="490" width="120" height="30" as="geometry"/>
                </mxCell>
                <mxCell id="96" value="Decision Set" style="rounded=1;fontSize=10;html=1;" vertex="1" parent="1">
                    <mxGeometry x="800" y="625" width="120" height="30" as="geometry"/>
                </mxCell>
                <mxCell id="97" value="Bayesian Analysis" style="rounded=1;fontSize=10;html=1;" vertex="1" parent="1">
                    <mxGeometry x="800" y="665" width="120" height="30" as="geometry"/>
                </mxCell>
                <mxCell id="98" value="LIME" style="rounded=1;fontSize=10;html=1;" vertex="1" parent="1">
                    <mxGeometry x="800" y="705" width="120" height="30" as="geometry"/>
                </mxCell>
            </root>
        </mxGraphModel>
    </diagram>
</mxfile>